# xmcd CD database file
#
# Track frame offsets:
#	150
#	20488
#	47992
#	67170
#	93422
#	110135
#	132906
#	156890
#	180672
#	202263
#
# Disc length: 3018 seconds
#
# Revision: 0
# Processed by: cddbd v1.5.2PL0 Copyright (c) Steve Scherf et al.
# Submitted via: CDex 1.70beta2
#
DISCID=970bc80a
DTITLE=Mary Gauthier - Between Daylight and Dark
DYEAR=2007
DGENRE=Country
TTITLE0=Snakebite
TTITLE1=Can't Find The Way
TTITLE2=Between Daylight and The Dark
TTITLE3=Last of the Hobo Kings
TTITLE4=Before You Leave
TTITLE5=Please
TTITLE6=Same Road
TTITLE7=I Ani't Leaving
TTITLE8=Soft Place To Land
TTITLE9=Thanksgiving
EXTD=YEAR: 2007
EXTT0=
EXTT1=
EXTT2=
EXTT3=
EXTT4=
EXTT5=
EXTT6=
EXTT7=
EXTT8=
EXTT9=
PLAYORDER=
